<?xml version="1.0" standalone="no"?><!DOCTYPE svg PUBLIC "-//W3C//DTD SVG 1.1//EN" "http://www.w3.org/Graphics/SVG/1.1/DTD/svg11.dtd"><svg t="1717852976899" class="icon" viewBox="0 0 1024 1024" version="1.1" xmlns="http://www.w3.org/2000/svg" p-id="24858" xmlns:xlink="http://www.w3.org/1999/xlink" width="48" height="48"><path d="M384 266.666667a32 32 0 0 0 0 64v-64z m518.698667 534.528l26.624 17.792-26.624-17.792z m-58.88 58.88l-17.749334-26.624 17.792 26.581333z m73.258666-504.533334l26.624-17.749333-26.624 17.749333z m-35.285333-35.285333l-17.792 26.581333 17.792-26.581333z m-396.8-75.648l-28.629333 14.336 28.586666-14.336z m-1.621333 68.352a32 32 0 1 0 57.258666-28.586667l-57.258666 28.586667zM392.533333 136.149333l11.264-29.952-11.264 29.952z m-241.493333 8.106667l-15.616-27.989333 15.573333 27.946666zM101.546667 193.578667l-27.946667-15.573334 27.946667 15.573334zM565.333333 864H512v64h53.333333v-64zM384 330.666667h330.666667v-64H384v64z m128 533.333333c-101.461333 0-174.336-0.085333-229.802667-7.509333-54.570667-7.338667-87.466667-21.333333-111.786666-45.610667l-45.226667 45.226667c38.186667 38.229333 86.826667 55.509333 148.48 63.786666 60.714667 8.192 138.666667 8.106667 238.336 8.106667v-64zM53.333333 469.333333c0 99.669333-0.085333 177.621333 8.106667 238.336 8.277333 61.653333 25.6 110.293333 63.744 148.48l45.226667-45.226666c-24.277333-24.32-38.229333-57.216-45.568-111.786667-7.424-55.466667-7.509333-128.341333-7.509334-229.802667h-64z m853.333334 53.333334c0 75.562667 0 129.834667-4.352 172.032-4.224 41.642667-12.330667 67.925333-26.197334 88.746666l53.205334 35.541334c22.058667-33.066667 31.914667-71.125333 36.693333-117.802667 4.693333-46.208 4.650667-104.277333 4.650667-178.517333h-64z m-341.333334 405.333333c74.24 0 132.309333 0 178.517334-4.693333 46.677333-4.693333 84.736-14.592 117.76-36.650667l-35.541334-53.205333c-20.778667 13.866667-47.061333 21.973333-88.746666 26.24-42.154667 4.266667-96.426667 4.309333-171.989334 4.309333v64z m310.784-144.597333a181.333333 181.333333 0 0 1-50.048 50.048l35.541334 53.205333a245.376 245.376 0 0 0 67.712-67.669333l-53.205334-35.584z m94.549334-260.736c0-44.288 0-79.872-2.858667-108.373334-2.986667-29.056-9.216-54.229333-24.106667-76.501333l-53.205333 35.541333c6.656 10.026667 11.178667 23.466667 13.653333 47.402667 2.474667 24.533333 2.517333 56.32 2.517334 101.930667h64z m-256-192c45.610667 0 77.397333 0 101.930666 2.56 23.978667 2.432 37.376 6.912 47.402667 13.653333l35.541333-53.248c-22.272-14.890667-47.445333-21.162667-76.501333-24.106667-28.501333-2.901333-64.085333-2.858667-108.373333-2.858666v64z m229.034666 7.125333a160 160 0 0 0-44.16-44.16l-35.541333 53.205333c10.496 6.997333 19.498667 16 26.453333 26.496l53.248-35.541333zM456.362667 258.944l27.008 54.016 57.258666-28.586667-27.050666-54.058666-57.216 28.586666zM117.333333 469.333333V338.944h-64V469.333333h64z m178.944-309.333333c52.181333 0 69.973333 0.469333 84.992 6.101333l22.485334-59.904c-28.501333-10.666667-60.330667-10.197333-107.477334-10.197333v64z m0-64c-38.186667 0-68.864 0-93.610666 2.133333-25.173333 2.218667-47.189333 6.912-67.285334 18.133334l31.146667 55.893333c8.96-4.992 20.906667-8.405333 41.728-10.24 21.333333-1.877333 48.725333-1.92 88.021333-1.92v-64zM117.333333 338.944c0-39.296 0-66.730667 1.92-88.021333 1.834667-20.821333 5.248-32.725333 10.24-41.685334l-55.893333-31.189333c-11.221333 20.053333-15.914667 42.112-18.133333 67.285333-2.133333 24.746667-2.133333 55.466667-2.133334 93.610667h64z m18.048-222.677333a160 160 0 0 0-61.781333 61.781333l55.893333 31.146667a96 96 0 0 1 37.077334-37.034667l-31.189334-55.893333z m378.197334 114.048c-20.778667-41.557333-46.250667-100.266667-109.824-124.16l-22.485334 59.946666c35.626667 13.354667 51.072 44.8 75.093334 92.842667l57.216-28.629333zM640.426667 536.234667a32 32 0 0 1 41.813333-48.469334l-41.813333 48.469334z m60.16 9.6l-20.906667 24.234666 20.906667-24.234666z m0 60.330666l-20.906667-24.234666 20.906667 24.234666z m-18.346667 58.069334a32 32 0 0 1-41.813333-48.469334l41.813333 48.469334zM725.333333 576h-32 32z m-43.093333-88.234667l39.253333 33.834667-41.813333 48.469333-39.253333-33.834666 41.813333-48.469334z m39.253333 142.634667l-39.253333 33.834667-41.813333-48.469334 39.253333-33.834666 41.813333 48.469333z m0-108.8c7.509333 6.485333 15.701333 13.44 21.632 20.138667 6.314667 7.125333 14.208 18.474667 14.208 34.261333h-64c0 3.114667 0.810667 5.76 1.664 7.509333 0.682667 1.408 1.109333 1.706667 0.170667 0.64a71.722667 71.722667 0 0 0-5.248-5.12c-2.730667-2.517333-6.016-5.333333-10.24-8.96l41.813333-48.469333z m-41.813333 60.330667c4.224-3.626667 7.509333-6.442667 10.24-8.96 2.773333-2.474667 4.352-4.053333 5.248-5.12 0.938667-1.066667 0.512-0.768-0.170667 0.64a17.536 17.536 0 0 0-1.664 7.509333h64c0 15.786667-7.893333 27.136-14.208 34.261333-5.930667 6.698667-14.08 13.653333-21.632 20.138667l-41.813333-48.469333zM383.573333 536.234667a32 32 0 0 0-41.813333-48.469334l41.813333 48.469334z m-60.16 9.6l20.906667 24.234666-20.906667-24.234666z m0 60.330666l20.906667-24.234666-20.906667 24.234666z m18.346667 58.069334a32 32 0 0 0 41.813333-48.469334l-41.813333 48.469334zM298.666667 576h0z m43.093333-88.234667l-39.253333 33.834667 41.813333 48.469333 39.253333-33.834666-41.813333-48.469334z m-39.253333 142.634667l39.253333 33.834667 41.813333-48.469334-39.253333-33.834666-41.813333 48.469333z m0-108.8c-7.509333 6.485333-15.701333 13.44-21.632 20.138667-6.314667 7.125333-14.208 18.474667-14.208 34.261333h64a17.536 17.536 0 0 1-1.664 7.509333c-0.682667 1.408-1.109333 1.706667-0.170667 0.64 0.896-1.066667 2.474667-2.645333 5.248-5.12 2.730667-2.517333 6.016-5.333333 10.24-8.96l-41.813333-48.469333z m41.813333 60.330667a578.432 578.432 0 0 1-10.24-8.96 71.722667 71.722667 0 0 1-5.248-5.12c-0.938667-1.066667-0.512-0.768 0.170667 0.64 0.853333 1.749333 1.664 4.394667 1.664 7.509333h-64c0 15.786667 7.893333 27.136 14.208 34.261333 5.930667 6.698667 14.08 13.653333 21.632 20.138667l41.813333-48.469333zM584.362667 481.237333a32 32 0 0 0-59.392-23.808l59.392 23.808z m-144.725334 189.525334a32 32 0 1 0 59.392 23.808l-59.392-23.808z m85.333334-213.333334l-85.333334 213.333334 59.392 23.808 85.333334-213.333334-59.392-23.808z" fill="#ff0000" p-id="24859"></path></svg>