<?xml version="1.0" standalone="no"?><!DOCTYPE svg PUBLIC "-//W3C//DTD SVG 1.1//EN" "http://www.w3.org/Graphics/SVG/1.1/DTD/svg11.dtd"><svg t="1717853124388" class="icon" viewBox="0 0 1024 1024" version="1.1" xmlns="http://www.w3.org/2000/svg" p-id="28507" xmlns:xlink="http://www.w3.org/1999/xlink" width="48" height="48"><path d="M1022.515735 588.505636c0 9.38688 1.109359 5.689018 1.56448 3.697862l-0.938688 5.120117c-8.874869 50.063363-52.50964 18.48931-56.890185 28.445092l-29.070884-20.480467V518.530709a155.082644 155.082644 0 0 0-7.76551-74.241691c-12.544286-17.635957-33.508319-16.213703-63.375666-16.213703h-184.693985v85.619728a284.849155 284.849155 0 0 1-5.091671 75.379495 130.619864 130.619864 0 0 1-94.750603 89.033139 272.902216 272.902216 0 0 1-60.388931 3.12896h-65.082371v185.177551c0 30.151798-1.735151 51.201166 16.156812 64.001458 16.839495 11.946939 58.141769 7.680175 86.672197 7.680175h111.504762c36.665724 0 54.813693 4.266764 60.388931 35.556366a48.356657 48.356657 0 0 1-3.612527 26.169484c-12.743401 29.867347-48.214432 23.609427-89.37448 23.609427h-146.463781c-3.669417-0.284451-7.367279-0.853353-11.065141-1.137804a143.818387 143.818387 0 0 1-23.29653-5.973469 133.379038 133.379038 0 0 1-75.038154-69.406025 163.530836 163.530836 0 0 1-10.752245-39.254228c0-19.342663-0.199116-38.685326-0.312896-57.743537v-168.679398H201.078358a324.416278 324.416278 0 0 1-67.244198-2.275607 143.306375 143.306375 0 0 1-59.507134-29.867347 128.884713 128.884713 0 0 1-42.127181-70.82828 377.38104 377.38104 0 0 1-2.389388-78.508455v-64.285909c0-9.38688-1.109359-5.689018-1.56448-3.697862l0.938688-5.120117c8.874869-50.063363 52.50964-18.48931 56.890184-28.445092l29.070885 20.480467v86.757531a155.082644 155.082644 0 0 0 7.76551 74.241691c12.544286 17.635957 33.508319 16.213703 63.375666 16.213703h184.693985v-85.619728a284.849155 284.849155 0 0 1 5.091671-75.379495 130.619864 130.619864 0 0 1 94.750603-89.033139 272.902216 272.902216 0 0 1 60.388931-3.12896h65.082371V157.562487c0-30.151798 1.735151-51.201166-16.156812-64.001458-16.839495-11.946939-58.141769-7.680175-86.672197-7.680175h-111.504762c-36.665724 0-54.813693-4.266764-60.388931-35.556365a48.356657 48.356657 0 0 1 3.612527-26.169485c12.743401-29.867347 48.214432-23.609427 89.37448-23.609427h146.463781c3.669417 0.284451 7.367279 0.853353 11.065141 1.137804a143.818387 143.818387 0 0 1 23.29653 5.973469 133.379038 133.379038 0 0 1 75.038154 69.406025 163.530836 163.530836 0 0 1 10.752245 39.254228c0 19.342663 0.199116 38.685326 0.312896 57.743537v168.679398h141.315219a660.4666 660.4666 0 0 1 95.68929 2.275607 143.306375 143.306375 0 0 1 59.507134 29.867347 128.884713 128.884713 0 0 1 42.127181 70.82828 377.38104 377.38104 0 0 1 2.389388 78.508455v64.285909z m-426.221264-65.708163v-94.722158H523.389699c-25.856589 0-46.450836-0.284451-57.715092 13.938095a94.153256 94.153256 0 0 0-9.557551 59.165792v94.722158H529.078718c25.856589 0 46.450836 0.284451 57.715092-13.938095a94.153256 94.153256 0 0 0 9.500661-59.165792zM71.112731 199.092322A71.112731 71.112731 0 1 1 142.225462 127.979591a71.112731 71.112731 0 0 1-71.112731 71.112731z m881.797863 654.237124a71.112731 71.112731 0 1 1-71.112731 71.112731 71.112731 71.112731 0 0 1 71.112731-71.112731z" fill="#ff0000" p-id="28508"></path></svg>